<svg width="256" height="256" viewBox="0 0 256 256" fill="none" xmlns="http://www.w3.org/2000/svg">
  <rect width="256" height="256" rx="48" fill="#1E1F1B"/>
  <path d="M64 92C64 76.536 76.536 64 92 64H136C167.928 64 193.818 89.888 193.818 121.818C193.818 153.748 167.928 179.636 136 179.636H122.182V146.909H136C149.855 146.909 161.091 135.673 161.091 121.818C161.091 107.963 149.855 96.7273 136 96.7273H96.7273V192H64V92Z" fill="#FFF6EA"/>
  <path d="M108.364 135.273C108.364 117.182 123.031 102.545 141.091 102.545H157.455C175.546 102.545 190.182 117.182 190.182 135.273C190.182 153.364 175.546 168 157.455 168H108.364V135.273Z" fill="#D9A86B"/>
  <path d="M108.364 168H190.182V192H108.364V168Z" fill="#B97B32"/>
</svg>
